<svg width="1024" height="1024" viewBox="0 0 1024 1024" xmlns="http://www.w3.org/2000/svg"><path d="M480.972333 619.047038c2.257413 2.0241 2.651386 5.935176 0.880043 8.735965l-48.91813 77.330226c-1.772366 2.800789-5.037736 3.430122-7.29515 1.406023-2.257413-2.0241-2.651386-5.935176-0.880043-8.735965l48.91813-77.330226C475.448526 617.652272 478.714919 617.022938 480.972333 619.047038z" fill="#08a1ef"></path><path d="M485.206774 623.329575c0.443092 2.981914-1.641383 5.735631-4.656043 6.152117l-83.228563 11.488659c-3.013637 0.416486-5.816472-1.663896-6.259564-4.644787-0.444115-2.981914 1.64036-5.735631 4.65502-6.152117l83.228563-11.488659C481.960847 618.268302 484.762659 620.34766 485.206774 623.329575z" fill="#08a1ef"></path><path d="M436.978353 719.643154c-14.660908-33.076326-27.275203-63.082734-41.936111-96.160083-1.989307-4.486174-8.908904-6.646374-16.685008-2.119267-74.024947 43.095517-111.098307 182.106548-179.961698 213.643821-4.481058 2.051729-6.351662 7.604188-4.358261 12.101619 23.576975 9.324366 45.211714 14.266935 65.661466 16.533558-5.78782 30.809703-20.580734 73.881684-21.677719 82.695421 1.989307 4.487198 7.197936 6.442736 11.568477 4.16588C333.448418 906.8253 355.092367 763.562433 432.619068 731.744773 437.178921 729.873146 438.971753 724.140585 436.978353 719.643154zM419.556565 726.951607c-75.379804 43.432185-82.201164 140.305513-162.360831 204.773803-3.213181 2.583848 0.014326-12.003382 2.983961-21.942755 7.6574-25.453718 17.195637-54.122665 12.618389-58.189284-17.072841-1.909489-37.987173-0.887206-57.671491-8.743128-5.533017-1.023306-2.15406-0.537236-5.533017-1.023306l0 0c-1.39579 0.781806 2.385327-2.385327 0 0l13.150508-8.16803c50.142004-35.304064 94.582145-167.039387 157.170622-201.953571 3.597945-2.01489 7.998161-0.270153 9.658987 3.508917 12.240789 27.864628 22.434965 53.682643 34.675754 81.547271C425.914366 720.549803 421.894819 725.604936 419.556565 726.951607z" fill="#08a1ef"></path><path d="M320.145437 796.72267c-0.9967-0.947582-1.998517-1.267876-2.899026-1.112334-0.954745 0.231267-1.873674 0.873903-2.695389 1.991354-0.820692 1.11745-1.523703 2.219551-2.051729 3.234671-0.583285 1.089821-1.003863 1.954515-1.269923 2.461051-1.107217-1.052982-2.213411-2.105964-3.320629-3.158946-0.930185-0.884137-2.058892-1.958608-3.464915-3.421936-1.272993-1.337461-2.744507-2.864234-4.361331-4.65502-1.605567-1.653663-3.343141-3.433192-5.158487-5.412266-1.804089-1.842974-3.553942-3.759627-5.435803-5.803169-0.730641-0.694825-1.406023-1.463328-2.026146-2.306532-0.608867-0.706081-1.284249-1.474584-2.081405-2.232854-0.531096-0.505513-1.095961-0.662079-1.77032-0.672312-0.730641 0.064468-1.450025 0.26606-2.103918 0.529049-0.709151 0.337691-1.353834 0.73678-1.933025 1.198292-0.512676 0.524956-0.970094 0.975211-1.25048 1.341554-0.448208 0.586354-0.708128 1.224898-0.856507 1.716084-0.071631 0.690732-0.143263 1.381463-0.037862 1.989307 0.116657 0.743944 0.223081 1.350764 0.384763 1.883907 0.171915 0.670266 0.278339 1.277086 0.382717 1.882883 1.357927 6.859221 2.364861 13.637602 3.255137 20.305465 0.773619 6.809079 1.804089 13.483082 3.039219 20.098757 0.094144 0.722454 0.320295 1.570775 0.485047 2.485611 0.296759 1.041726 0.527003 2.020006 0.817622 2.928702 0.295735 1.039679 0.712221 1.943258 1.192152 2.778276 0.417509 0.903579 0.957815 1.670036 1.488911 2.175549 0.9967 0.947582 2.045589 1.566682 3.208065 1.785669 1.227967 0.282433 2.38021 0.239454 3.578502-0.13917 1.143033-0.178055 2.205225-0.685615 3.317559-1.39886 1.051959-0.644683 1.966795-1.419326 2.743484-2.324952 0.598634-0.696872 1.194198-1.394766 1.713015-2.292206 0.459464-0.827855 0.977257-1.727341 1.489934-2.63092 0.455371-0.831948 0.966001-1.737574 1.349741-2.638083 0.450255-0.837064 0.831948-1.739621 1.278109-2.580778 0.718361-1.467421 1.497097-2.87856 2.325975-4.366448 0.839111-1.352811 1.605567-2.774183 2.356674-4.337795 0.797156 0.75827 1.471514 1.52575 2.267647 2.284019 0.797156 0.75827 1.461281 1.38965 2.125407 2.022053 0.674359 0.76748 1.281179 1.472538 1.813299 1.978051 0.597611 0.568958 0.995677 0.947582 1.261737 1.200338 2.854001 2.715855 5.273097 2.738367 7.397481-0.049119 0.670266-0.880043 1.017166-1.942235 1.228991-3.133364 0.211824-1.190105-0.12075-2.2656-1.11745-3.213181-1.062192-1.011027-2.302439-1.937119-3.53143-2.726088-1.284249-0.715291-2.469238-1.716084-3.597945-2.789533-1.151219-1.094938-2.302439-2.189875-3.453658-3.285836 1.477654-1.967818 2.945075-3.946892 4.402263-5.934153 0.655939-0.89437 0.880043-1.819438 0.783853-2.923586C321.389778 798.412149 320.942593 797.48094 320.145437 796.72267L320.145437 796.72267zM286.3661 790.528598c6.782473 6.831592 13.564947 13.663184 20.34742 20.493753-0.591471 1.208525-1.355881 2.632967-2.231831 4.329609-0.934279 1.768273-1.876744 3.529383-2.88777 5.351891-1.010003 1.822508-1.973958 3.562129-2.961448 5.027503-0.980327 1.598404-1.807159 2.709715-2.403746 3.40761-0.23843 0.279363-0.418532 0.488117-0.723477 0.703011-0.305969 0.214894-0.62524 0.164752-0.8913-0.088004-0.531096-0.505513-1.01512-1.345648-1.466398-2.787486-0.451278-1.441838-0.844228-2.955308-1.24741-4.603855-0.335644-1.585101-0.675382-3.172249-0.8913-4.76963-0.275269-1.526773-0.529049-2.654456-0.642636-3.52222-0.604774-3.865028-1.224898-7.744381-2.048659-11.691273C287.62579 798.558481 286.913569 794.592147 286.3661 790.528598z" fill="#08a1ef"></path><path d="M343.323323 733.36876c-2.457981-2.337231-4.862751-4.119831-7.163143-5.421476-2.287089-1.163499-4.707209-1.821485-7.140631-1.984191-2.858094-0.188288-5.699816 0.398066-8.456602 1.824555-2.756787 1.426489-5.189186 3.667529-7.191796 6.569626-1.423419 2.061962-2.423189 4.148483-3.13234 6.130627-0.694825 2.122337-1.100054 4.142343-1.333368 6.071276-0.220011 2.068102-0.268106 4.046153-0.078795 5.997598 0.189312 1.951445 0.364297 3.762697 0.644683 5.421476 0.37453 2.632967 1.038656 5.16258 1.994424 7.590885 0.902556 2.503007 2.030239 4.841262 3.264347 7.027044 1.246387 2.324952 2.65241 4.421706 4.16588 6.367011 1.51347 1.945305 3.000334 3.613294 4.594645 5.129834 5.445012 5.179976 10.742668 7.436366 15.977903 6.595208 5.182023-0.76441 9.855462-4.163833 13.966083-10.122545 2.056845-2.978844 3.475148-6.310729 4.140297-9.979282 0.679475-3.529383 0.792039-7.344269 0.350994-11.307533-0.401136-4.177136-1.832741-8.449439-4.247744-12.897751C351.209944 742.010581 347.773681 737.602178 343.323323 733.36876L343.323323 733.36876zM338.90264 740.930993c4.317329 4.106528 7.439436 8.341992 9.488095 12.695137 1.99647 4.428869 2.879584 8.559956 2.599198 12.467963-0.074701 1.700735-0.401136 3.287883-0.951675 5.04183-0.550539 1.753947-1.194198 3.166109-1.933025 4.234441-1.582031 2.291183-3.112897 3.871167-4.780887 4.688789-1.653663 0.956791-3.362584 1.355881-5.061272 1.258667-1.63115-0.033769-3.303232-0.485047-4.963035-1.431605-1.713015-0.86981-3.279696-2.108011-4.874007-3.624551-1.328251-1.263783-2.616594-2.742461-3.866051-4.437056-1.249457-1.694595-2.325975-3.478218-3.350304-5.337565-1.010003-1.721201-1.849114-3.530406-2.555196-5.214768-0.706081-1.683339-1.212618-3.178389-1.521656-4.483104-0.37453-1.36816-0.577145-2.826372-0.726547-4.361331-0.1361-1.394766-0.167822-2.943029-0.065492-4.364401 0.049119-1.345648 0.215918-2.704598 0.51677-3.936659 0.299829-1.232061 0.681522-2.26253 1.313925-3.178389 1.792832-2.597151 3.563152-4.202719 5.310959-4.816702 1.814322-0.551562 3.656273-0.822738 5.473665-0.738827 1.76418 0.159636 3.384074 0.688685 4.977361 1.571798C335.475588 737.924519 337.176322 739.288586 338.90264 740.930993z" fill="#08a1ef"></path><path d="M394.989029 695.850262c-0.995677-0.947582-2.036379-1.304715-2.995217-1.204431-1.019213 0.168846-2.023076 0.732687-2.937912 1.760087-0.914836 1.028423-1.696642 2.055822-2.286066 3.012613-0.650823 1.026376-1.115404 1.848091-1.408069 2.330068-1.107217-1.052982-2.213411-2.105964-3.320629-3.158946-0.930185-0.884137-2.058892-1.958608-3.459798-3.417843-1.2689-1.333368-2.736321-2.856048-4.343935-4.637624-1.600451-1.648546-3.333932-3.425006-5.140067-5.395894-1.799996-1.838881-3.539616-3.746324-5.412266-5.780657-0.730641-0.694825-1.400906-1.459235-2.01182-2.293229-0.603751-0.700965-1.27504-1.465374-2.071172-2.223644-0.531096-0.505513-1.110287-0.676405-1.808182-0.708128-0.75827 0.037862-1.509377 0.208754-2.191922 0.445138-0.74292 0.305969-1.417279 0.676405-2.0241 1.111311-0.540306 0.49835-1.019213 0.928139-1.313925 1.280156-0.470721 0.563842-0.74906 1.184989-0.909719 1.665942-0.085958 0.677429-0.170892 1.355881-0.071631 1.955538 0.106424 0.734734 0.205685 1.335415 0.363274 1.864464 0.165776 0.663102 0.265036 1.264806 0.36532 1.866511 1.299599 6.803963 2.328022 13.601786 3.329838 20.37505 0.889253 6.918573 2.118244 13.781888 3.614317 20.646226 0.124843 0.751107 0.382717 1.629103 0.585331 2.581802 0.336668 1.079588 0.606821 2.095731 0.932232 3.038196 0.336668 1.079588 0.783853 2.010797 1.284249 2.867304 0.446162 0.931209 1.001817 1.711991 1.533936 2.217505 0.9967 0.947582 2.023076 1.544169 3.134387 1.716084 1.177825 0.23536 2.2656 0.130983 3.387144-0.320295 1.077541-0.239454 2.067079-0.817622 3.102664-1.603521 0.980327-0.712221 1.830695-1.548262 2.550079-2.508123 0.553609-0.738827 1.109264-1.475608 1.589195-2.410909 0.424672-0.861624 0.905626-1.794879 1.38965-2.726088 0.427742-0.858554 0.913812-1.787716 1.279133-2.705622 0.431835-0.854461 0.798179-1.771343 1.234107-2.62171 0.699941-1.484817 1.471514-2.901073 2.307555-4.383844 0.845251-1.347694 1.629103-2.752694 2.411933-4.285606 0.797156 0.75827 1.469468 1.524726 2.266623 2.282996 0.797156 0.75827 1.461281 1.38965 2.125407 2.022053 0.672312 0.766456 1.278109 1.469468 1.810229 1.973958 0.597611 0.568958 0.995677 0.947582 1.261737 1.200338 2.858094 2.718925 5.291516 2.756787 7.534604 0.080841 0.709151-0.844228 1.095961-1.867534 1.352811-3.01466 0.257873-1.147126-0.047072-2.194992-1.042749-3.143597-1.062192-1.011027-2.311649-1.946328-3.553942-2.747577-1.301645-0.732687-2.490727-1.736551-3.619434-2.811022-1.151219-1.094938-2.302439-2.189875-3.453658-3.285836 1.593288-1.858324 3.203972-3.700275 4.834098-5.523807 0.733711-0.819668 1.022283-1.685385 0.983397-2.733251C396.202671 697.511087 395.786185 696.608531 394.989029 695.850262L394.989029 695.850262zM360.223225 688.716794c6.776334 6.825452 13.553691 13.651928 20.330024 20.47738-0.61603 1.184989-1.403976 2.587941-2.288113 4.276397-0.942465 1.76111-1.87572 3.529383-2.858094 5.379521-0.981351 1.850138-1.89721 3.635807-2.827395 5.155417-0.918929 1.655709-1.685385 2.824325-2.240017 3.562129-0.222057 0.294712-0.387833 0.51677-0.675382 0.74906-0.287549 0.232291-0.597611 0.190335-0.86367-0.062422-0.531096-0.505513-1.029446-1.358951-1.51654-2.834558-0.48607-1.475608-0.916882-3.022847-1.356904-4.707209-0.372483-1.619894-0.743944-3.238764-0.991584-4.865821-0.302899-1.553379-0.573051-2.697435-0.700965-3.577478-0.661056-3.919263-1.310855-7.826246-2.137687-11.776208C361.403097 696.673 360.713388 692.726108 360.223225 688.716794z" fill="#08a1ef"></path><path d="M517.208629 225.674832c-54.375421-12.347213-100.610442 9.573029-124.196627 60.734246-29.704532 64.428382-26.461675 128.403438 6.065136 194.720843 15.95846-28.291346 37.566594-45.080731 67.295686-48.940642 14.46034-1.87572 11.69946-11.574616 11.773138-20.537755 0.478907-59.883879 15.916505-115.536386 48.653093-165.597549C536.678052 230.941789 529.996886 228.574882 517.208629 225.674832L517.208629 225.674832zM508.049015 251.385401c-27.224038 46.991244-41.221844 97.945753-42.761919 152.337547-0.199545 7.04137 1.14201 14.939247-8.974395 16.912182-21.055548 4.109598-38.006616 15.916505-54.796 32.101115-24.194028-58.998719-20.162202-113.422236 6.132674-166.286234 18.421558-37.035498 53.999868-55.473429 92.003414-50.780547C511.026836 237.0673 514.915399 239.535515 508.049015 251.385401L508.049015 251.385401zM482.611669 502.82606c-9.081843-5.369288-10.751878-0.726547-12.216229 7.048533-5.15337 27.38879-10.706853 54.703903-16.60826 84.575234 8.840342-4.817726 15.420201-8.399297 23.936155-13.038968 2.76702 19.839861-6.129604 37.039591-1.202385 56.523341 13.806447-10.809183 26.028816-20.379143 39.978527-31.296797 0.782829 8.157797 1.354857 14.104229 2.162246 22.520923 26.203802-20.343327 50.739615-39.396265 77.30976-60.025095C556.588521 546.137495 519.506974 524.641925 482.611669 502.82606L482.611669 502.82606zM534.913872 599.027076c-3.368724-20.284999-3.368724-20.284999-8.708336-17.889439-10.514471 8.433066-21.033036 16.861016-35.7052 28.629038 1.090844-20.343327 5.322216-50.514487 2.788509-51.995211-8.182356 1.923816-9.902534 3.053546-17.925255 4.529153 1.858324-46.743604 2.51631-47.139623 41.162492-24.51944 17.894555 10.473539 35.773761 20.959358 54.747905 32.077579C559.663556 582.229504 547.461653 590.833463 534.913872 599.027076L534.913872 599.027076zM819.831994 200.062502c1.415232-42.726104-5.206582-80.993662-14.798031-118.806873-1.946328-7.676843-2.093684-16.965393-16.22145-12.888542C678.711929 100.158141 587.488275 155.655106 540.479635 266.704294c-27.572986 65.144696-45.603641 133.313262-60.617589 202.352661-2.555196 11.746532 0.712221 18.373463 11.248182 24.266683 32.565696 18.20871 64.842821 36.987403 96.615455 56.558134 11.418051 7.031137 19.379373 6.939039 30.29498-1.601474 39.841404-31.16786 76.045977-65.924455 107.772562-105.34221C783.637654 371.069247 824.321238 292.480354 819.831994 200.062502L819.831994 200.062502zM710.87035 440.5896c-28.384467 34.594913-60.792575 65.071018-95.519494 93.235474-9.371438 7.600095-16.031115 8.052396-26.279526 1.678222-28.0171-17.414625-56.733119-33.706683-85.441974-49.962925-8.556886-4.847401-11.733229-9.44-9.378601-20.379143 14.706957-68.379367 33.180703-135.593188 61.135382-199.744253C598.577844 166.295444 681.766498 116.469642 779.098267 84.550675c10.343579-3.39226 13.757329 0.667196 15.944134 10.359952 7.634888 33.839713 12.81998 67.890226 11.773138 107.420545C811.340599 293.126061 768.791527 370.000915 710.87035 440.5896L710.87035 440.5896zM661.640112 247.833505c-33.650401-0.062422-61.512982 27.758204-61.72276 61.616336-0.209778 33.477462 27.79709 62.131059 61.096497 62.506613 32.961716 0.37146 61.34823-28.129664 61.683874-61.942771C723.037461 276.298813 695.149297 247.894903 661.640112 247.833505L661.640112 247.833505zM662.307308 358.865297c-26.169009 0.555655-49.342802-22.566972-49.370431-49.249681-0.020466-25.970488 21.476127-48.052412 47.382147-48.66435 26.706245-0.63138 49.080835 21.643949 49.133024 48.914036C709.500143 336.083431 688.104857 358.320898 662.307308 358.865297L662.307308 358.865297zM774.874059 409.112702c-25.00858 54.376445-63.874773 96.949053-114.220415 128.97956-7.53358 4.797259-17.184381 7.564279-11.132548 20.895913 12.43931 27.406187 9.668197 54.714136-5.808286 83.279728 73.212442-7.262404 128.97342-38.285978 167.725002-97.668437 30.770817-47.152926 24.868387-98.188276-14.280238-138.071635C787.946796 397.144112 782.421966 392.694777 774.874059 409.112702L774.874059 409.112702zM797.992593 426.791339c24.030299 29.959336 27.240411 70.057589 5.678326 105.334024-30.776957 50.359968-74.626651 82.542948-137.255037 93.057419 4.805446-22.87601 5.832845-43.578518-1.820462-63.71923-3.674693-9.67843 3.708462-12.7023 9.546424-16.58984 45.143153-30.040177 80.798211-68.9033 106.124016-116.951619C786.653337 415.809217 790.797727 417.821037 797.992593 426.791339L797.992593 426.791339zM797.992593 426.791339" fill="#08a1ef"></path></svg>